<?xml version="1.0" encoding="UTF-8" standalone="no"?>
<!DOCTYPE svg PUBLIC "-//W3C//DTD SVG 1.1//EN" "http://www.w3.org/Graphics/SVG/1.1/DTD/svg11.dtd">
<svg xmlns="http://www.w3.org/2000/svg" version="1.1" viewBox="0.00 0.00 100.00 100.00">
<path fill="#000000" d="
  M 100.00 90.89
  L 100.00 94.19
  Q 99.60 94.84 99.20 95.07
  A 1.49 1.48 -16.5 0 1 96.94 93.85
  Q 96.28 73.68 79.01 63.34
  A 0.17 0.16 8.7 0 0 78.76 63.52
  L 81.38 74.70
  A 0.49 0.47 6.3 0 0 81.66 75.04
  Q 87.05 77.22 86.54 82.51
  C 85.74 90.71 73.32 90.35 72.91 82.21
  Q 72.66 77.30 77.47 75.18
  A 0.78 0.77 74.9 0 0 77.93 74.37
  Q 77.15 67.63 74.55 62.00
  A 0.32 0.31 -39.3 0 0 74.01 61.95
  L 64.27 75.24
  A 1.60 1.59 44.8 0 1 61.69 75.24
  L 51.77 61.76
  A 0.26 0.25 33.4 0 0 51.31 61.85
  L 49.95 68.09
  A 0.81 0.81 0.0 0 0 50.49 69.03
  Q 57.38 71.31 57.74 78.83
  Q 58.00 84.04 57.85 89.75
  Q 57.74 93.87 53.88 95.20
  A 1.72 1.71 66.9 0 1 51.79 94.36
  L 51.76 94.30
  A 1.38 1.38 0.0 0 1 52.50 92.39
  C 53.89 91.86 54.68 91.50 54.68 89.68
  Q 54.66 83.72 54.70 80.47
  C 54.74 76.60 53.77 73.77 50.48 72.34
  C 47.46 71.03 44.44 72.79 43.00 75.48
  Q 42.17 77.02 42.18 80.22
  Q 42.20 89.18 42.15 90.08
  Q 42.08 91.56 44.35 92.37
  A 1.38 1.37 22.3 0 1 45.14 94.23
  L 44.98 94.59
  A 1.27 1.27 0.0 0 1 43.56 95.31
  Q 39.25 94.41 39.17 90.65
  Q 39.04 83.68 39.01 82.03
  C 38.92 75.60 40.31 70.99 46.41 69.00
  A 0.30 0.29 88.6 0 0 46.60 68.79
  L 47.79 63.32
  A 0.20 0.20 0.0 0 0 47.49 63.10
  Q 29.47 73.53 28.86 93.86
  A 1.39 1.38 6.9 0 1 27.18 95.17
  L 26.64 95.05
  A 1.00 1.00 0.0 0 1 25.85 94.07
  C 25.94 76.15 36.98 62.46 53.80 57.43
  A 0.21 0.21 0.0 0 0 53.84 57.04
  Q 43.96 51.62 43.83 40.23
  Q 43.70 29.98 43.69 19.42
  Q 43.69 12.17 45.02 10.32
  C 48.14 6.01 51.43 5.39 57.20 5.43
  Q 64.86 5.49 67.42 5.43
  C 74.61 5.24 79.26 5.71 81.59 11.92
  Q 82.12 13.32 82.07 18.64
  Q 81.96 29.70 82.10 39.03
  Q 82.28 50.84 72.75 56.95
  A 0.25 0.24 37.5 0 0 72.81 57.39
  Q 96.75 65.53 100.00 90.89
  Z
  M 47.26 24.23
  L 78.62 24.13
  A 0.38 0.38 0.0 0 0 79.00 23.74
  L 78.97 15.31
  A 7.04 6.81 -0.2 0 0 71.90 8.53
  L 53.86 8.59
  A 7.04 6.81 -0.2 0 0 46.85 15.43
  L 46.88 23.86
  A 0.38 0.38 0.0 0 0 47.26 24.23
  Z
  M 46.84 27.97
  L 46.92 42.85
  A 1.48 1.27 40.7 0 0 46.98 43.25
  Q 49.50 52.44 57.79 55.28
  C 68.01 58.78 78.87 51.95 78.89 40.67
  Q 78.90 38.75 78.92 36.04
  A 0.87 0.87 0.0 0 0 78.07 35.17
  Q 65.92 34.85 57.20 27.69
  A 1.58 1.54 -24.5 0 0 56.20 27.33
  L 47.48 27.33
  A 0.64 0.64 0.0 0 0 46.84 27.97
  Z
  M 62.81 27.34
  A 0.25 0.25 0.0 0 0 62.68 27.81
  Q 70.04 31.90 78.62 32.14
  A 0.28 0.27 -0.0 0 0 78.90 31.87
  L 78.90 27.66
  A 0.33 0.32 0.0 0 0 78.57 27.34
  L 62.81 27.34
  Z
  M 62.99 71.46
  Q 63.05 71.46 63.11 71.44
  A 0.46 0.30 -70.7 0 0 63.31 71.29
  L 70.98 60.75
  A 0.25 0.25 0.0 0 0 70.84 60.36
  Q 66.97 59.39 62.94 59.40
  Q 58.92 59.42 55.06 60.41
  A 0.25 0.25 0.0 0 0 54.92 60.81
  L 62.66 71.29
  A 0.46 0.30 70.3 0 0 62.87 71.45
  Q 62.92 71.46 62.99 71.46
  Z
  M 83.49 81.70
  A 3.74 3.74 0.0 0 0 79.75 77.96
  A 3.74 3.74 0.0 0 0 76.01 81.70
  A 3.74 3.74 0.0 0 0 79.75 85.44
  A 3.74 3.74 0.0 0 0 83.49 81.70
  Z"
/>
<path fill="#000000" d="
  M 65.70 14.77
  L 68.08 15.35
  A 1.08 1.08 0.0 0 1 68.08 17.45
  L 65.70 18.03
  A 1.08 1.08 0.0 0 0 64.91 18.82
  L 64.33 21.20
  A 1.08 1.08 0.0 0 1 62.23 21.20
  L 61.65 18.82
  A 1.08 1.08 0.0 0 0 60.86 18.03
  L 58.48 17.45
  A 1.08 1.08 0.0 0 1 58.48 15.35
  L 60.86 14.77
  A 1.08 1.08 0.0 0 0 61.65 13.98
  L 62.23 11.60
  A 1.08 1.08 0.0 0 1 64.33 11.60
  L 64.91 13.98
  A 1.08 1.08 0.0 0 0 65.70 14.77
  Z"
/>
<path fill="#000000" d="
  M 0.00 79.48
  L 0.00 76.14
  Q 2.17 61.19 15.50 54.84
  Q 16.28 54.47 17.09 54.27
  Q 17.90 54.07 18.19 53.87
  A 0.44 0.44 0.0 0 0 18.19 53.16
  C 12.12 48.67 12.43 43.44 12.49 35.46
  Q 12.53 28.71 12.49 26.40
  C 12.37 20.28 14.85 17.06 20.82 17.19
  Q 22.47 17.23 29.48 17.16
  Q 34.89 17.10 36.34 18.09
  C 39.37 20.16 39.86 22.35 39.87 26.35
  Q 39.87 27.32 39.82 42.00
  C 39.80 46.96 37.72 50.26 34.15 53.28
  A 0.37 0.36 -53.6 0 0 34.24 53.89
  L 40.13 56.56
  A 2.05 2.05 0.0 0 1 41.15 59.26
  L 41.12 59.32
  A 1.53 1.53 0.0 0 1 39.03 59.74
  C 22.89 49.45 3.88 60.33 3.06 79.02
  Q 3.01 80.21 1.86 80.41
  Q 0.80 80.59 0.00 79.48
  Z
  M 16.10 29.66
  L 36.22 29.66
  A 0.50 0.50 0.0 0 0 36.72 29.16
  L 36.72 24.45
  A 4.20 4.13 0.0 0 0 32.52 20.32
  L 19.80 20.32
  A 4.20 4.13 -0.0 0 0 15.60 24.45
  L 15.60 29.16
  A 0.50 0.50 0.0 0 0 16.10 29.66
  Z
  M 36.37 32.79
  L 15.97 32.83
  A 0.35 0.35 0.0 0 0 15.62 33.18
  L 15.64 42.01
  A 10.64 10.38 89.9 0 0 26.04 52.63
  L 26.38 52.63
  A 10.64 10.38 89.9 0 0 36.74 41.97
  L 36.72 33.14
  A 0.35 0.35 0.0 0 0 36.37 32.79
  Z"
/>
</svg>
